<svg xmlns="http://www.w3.org/2000/svg" xmlns:xlink="http://www.w3.org/1999/xlink" width="480" height="480" viewBox="0 0 480 480"><g id="surface14077270"><path style="stroke:none;fill-rule:nonzero;fill:#d2bcf8;fill-opacity:1" d="M 305 310 C 231 310 170 249 170 175 C 170 101 231 40 305 40 C 379 40 440 101 440 175 C 440 249 379 310 305 310 Z M 305 80 C 253 80 210 123 210 175 C 210 227 253 270 305 270 C 357 270 400 227 400 175 C 400 123 357 80 305 80 Z M 305 80"/><path style="stroke:none;fill-rule:nonzero;fill:#a77bf2;fill-opacity:1" d="M 370 245 C 370 320 310 380 235 380 C 160 380 100 320 100 245 C 100 170 160 110 235 110 C 310 110 370 170 370 245 Z M 370 245"/><path style="stroke:none;fill-rule:nonzero;fill:#7c3aed;fill-opacity:1" d="M 310 305 C 310 380 250 440 175 440 C 100 440 40 380 40 305 C 40 230 100 170 175 170 C 250 170 310 230 310 305 Z M 310 305"/></g></svg>